<?xml version="1.0" standalone="no"?><svg xmlns:xlink="http://www.w3.org/1999/xlink" xmlns="http://www.w3.org/2000/svg" viewBox="0 0 200 200" preserveAspectRatio="xMaxYMax slice"><g transform="scale(0.4192872117400419)"><rect x="0" y="0" width="477" height="477" fill="#8a7815"/><rect x="0" y="0" width="119.25" height="119.25" fill="#dfaf20"/><path d="M 0 119.25 A 119.25 119.25 0 0 1  119.25 0 L 119.25 119.25L0 119.25" fill="#e2a518"/><rect x="119.25" y="0" width="119.25" height="119.25" fill="#dfaf20"/><path d="M 119.25 119.25 A 119.25 119.25 0 0 1  238.5 0 L 238.5 119.25L119.25 119.25" fill="#dfaf20"/><rect x="238.5" y="0" width="119.25" height="119.25" fill="#dfaf20"/><path d="M 238.5 119.25 A 119.25 119.25 0 0 1  357.75 0 L 357.75 119.25L238.5 119.25" fill="#ffeb33"/><rect x="357.75" y="0" width="119.25" height="119.25" fill="#dfaf20"/><path d="M 357.75 119.25 A 119.25 119.25 0 0 0 477 0 L 357.75 0L357.75 119.25" fill="#ffeb33"/><rect x="0" y="119.25" width="119.25" height="119.25" fill="#e2a518"/><path d="M 0 238.5 A 119.25 119.25 0 0 0 119.25 119.25 L 0 119.25L0 238.5" fill="#e2a518"/><rect x="119.25" y="119.25" width="119.25" height="119.25" fill="#dfaf20"/><path d="M 119.25 238.5 A 119.25 119.25 0 0 1  238.5 119.25 L 119.25 238.5 A 119.25 119.25 0 0 0 238.5 119.25" fill="#e2a518"/><rect x="238.5" y="119.25" width="119.25" height="119.25" fill="#ffeb33"/><path d="M 238.5 238.5 A 119.25 119.25 0 0 1  357.75 119.25 L 238.5 238.5 A 119.25 119.25 0 0 0 357.75 119.25" fill="#e2a518"/><rect x="357.75" y="119.25" width="119.25" height="119.25" fill="#ffeb33"/><path d="M 357.75 238.5 A 119.25 119.25 0 0 0 477 119.25 L 357.75 119.25L357.75 238.5" fill="#e2a518"/><rect x="0" y="238.5" width="119.25" height="119.25" fill="#e2a518"/><path d="M 0 238.5 A 119.25 119.25 0 0 1  119.25 357.75 L 0 238.5 A 119.25 119.25 0 0 0 119.25 357.75" fill="#ffeb33"/><rect x="119.25" y="238.5" width="119.25" height="119.25" fill="#e2a518"/><path d="M 119.25 238.5 A 119.25 119.25 0 0 1 238.5 357.75 L 119.25 357.75L119.25 238.5" fill="#dfaf20"/><rect x="238.5" y="238.5" width="119.25" height="119.25" fill="#dfaf20"/><path d="M 238.5 238.5 A 119.25 119.25 0 0 1  357.75 357.75 L 238.5 238.5 A 119.25 119.25 0 0 0 357.75 357.75" fill="#ffeb33"/><rect x="357.75" y="238.5" width="119.25" height="119.25" fill="#dfaf20"/><path d="M 357.75 357.75 A 119.25 119.25 0 0 1  477 238.5 L 477 357.75L357.75 357.75" fill="#e2a518"/><rect x="0" y="357.75" width="119.25" height="119.25" fill="#dfaf20"/><path d="M 0 357.75 A 119.25 119.25 0 0 1 119.25 477 L 0 477L0 357.75" fill="#e2a518"/><rect x="119.25" y="357.75" width="119.25" height="119.25" fill="#ffeb33"/><path d="M 119.25 477 A 119.25 119.25 0 0 1  238.5 357.75 L 238.5 477L119.25 477" fill="#dfaf20"/><rect x="238.5" y="357.75" width="119.25" height="119.25" fill="#e2a518"/><path d="M 238.5 477 A 119.25 119.25 0 0 1  357.75 357.75 L 238.5 477 A 119.25 119.25 0 0 0 357.75 357.75" fill="#dfaf20"/><rect x="357.75" y="357.75" width="119.25" height="119.25" fill="#dfaf20"/><path d="M 357.75 357.75 A 119.25 119.25 0 0 1 477 477 L 357.75 477L357.75 357.75" fill="#dfaf20"/></g></svg>