<?xml version="1.0" standalone="no"?><svg xmlns:xlink="http://www.w3.org/1999/xlink" xmlns="http://www.w3.org/2000/svg" viewBox="0 0 1000 550.0036320994573" preserveAspectRatio="xMaxYMax slice"><g transform="scale(1.1530474467493863)"><rect x="0" y="0" width="867.2727272727274" height="477.00000000000006" fill="#18158a"/><rect x="17.345454545454547" y="17.345454545454547" width="8.672727272727272" height="8.672727272727272" fill="#18158a"/><g transform="translate(17.35,17.35) scale(0.217) rotate(0)"><path d="M10 1L12.2451 7.90983H19.5106L13.6327 12.1803L15.8779 19.0902L10 14.8197L4.12215 19.0902L6.36729 12.1803L0.489441 7.90983H7.75487L10 1Z" fill="#9597cc"/></g><g transform="translate(21.68,17.35) scale(0.217) rotate(0)"><path d="M10 1L12.2451 7.90983H19.5106L13.6327 12.1803L15.8779 19.0902L10 14.8197L4.12215 19.0902L6.36729 12.1803L0.489441 7.90983H7.75487L10 1Z" fill="#1b52a9"/></g><g transform="translate(17.35,21.68) scale(0.217) rotate(0)"><path d="M10 1L12.2451 7.90983H19.5106L13.6327 12.1803L15.8779 19.0902L10 14.8197L4.12215 19.0902L6.36729 12.1803L0.489441 7.90983H7.75487L10 1Z" fill="#1894c3"/></g><rect x="182.47418181818182" y="9.019636363636364" width="25.32436363636364" height="25.32436363636364" fill="#18158a"/><g transform="translate(182.47,21.68) scale(0.633) rotate(0)"><path d="M10 1L12.2451 7.90983H19.5106L13.6327 12.1803L15.8779 19.0902L10 14.8197L4.12215 19.0902L6.36729 12.1803L0.489441 7.90983H7.75487L10 1Z" fill="#181f8f"/></g><rect x="223.75636363636366" y="6.938181818181819" width="29.487272727272728" height="29.487272727272728" fill="#18158a"/><g transform="translate(238.5,6.94) scale(0.737) rotate(0)"><path d="M10 1L12.2451 7.90983H19.5106L13.6327 12.1803L15.8779 19.0902L10 14.8197L4.12215 19.0902L6.36729 12.1803L0.489441 7.90983H7.75487L10 1Z" fill="#9496cb"/></g><g transform="translate(238.5,21.68) scale(0.737) rotate(0)"><path d="M10 1L12.2451 7.90983H19.5106L13.6327 12.1803L15.8779 19.0902L10 14.8197L4.12215 19.0902L6.36729 12.1803L0.489441 7.90983H7.75487L10 1Z" fill="#192693"/></g><rect x="17.345454545454547" y="60.70909090909092" width="8.672727272727272" height="8.672727272727272" fill="#18158a"/><g transform="translate(17.35,60.71) scale(0.217) rotate(0)"><path d="M10 1L12.2451 7.90983H19.5106L13.6327 12.1803L15.8779 19.0902L10 14.8197L4.12215 19.0902L6.36729 12.1803L0.489441 7.90983H7.75487L10 1Z" fill="#1a369b"/></g><rect x="58.62763636363637" y="58.62763636363637" width="12.835636363636361" height="12.835636363636361" fill="#18158a"/><g transform="translate(65.05,58.63) scale(0.321) rotate(0)"><path d="M10 1L12.2451 7.90983H19.5106L13.6327 12.1803L15.8779 19.0902L10 14.8197L4.12215 19.0902L6.36729 12.1803L0.489441 7.90983H7.75487L10 1Z" fill="#5252a9"/></g><g transform="translate(65.05,65.05) scale(0.321) rotate(0)"><path d="M10 1L12.2451 7.90983H19.5106L13.6327 12.1803L15.8779 19.0902L10 14.8197L4.12215 19.0902L6.36729 12.1803L0.489441 7.90983H7.75487L10 1Z" fill="#9496cb"/></g><rect x="99.9098181818182" y="56.54618181818182" width="16.998545454545454" height="16.998545454545454" fill="#18158a"/><g transform="translate(99.91,56.55) scale(0.425) rotate(0)"><path d="M10 1L12.2451 7.90983H19.5106L13.6327 12.1803L15.8779 19.0902L10 14.8197L4.12215 19.0902L6.36729 12.1803L0.489441 7.90983H7.75487L10 1Z" fill="#18399a"/></g><g transform="translate(108.41,56.55) scale(0.425) rotate(0)"><path d="M10 1L12.2451 7.90983H19.5106L13.6327 12.1803L15.8779 19.0902L10 14.8197L4.12215 19.0902L6.36729 12.1803L0.489441 7.90983H7.75487L10 1Z" fill="#1860ab"/></g><g transform="translate(141.19,54.46) scale(1.058) rotate(0)"><path d="M10 1L12.2451 7.90983H19.5106L13.6327 12.1803L15.8779 19.0902L10 14.8197L4.12215 19.0902L6.36729 12.1803L0.489441 7.90983H7.75487L10 1Z" fill="#323098"/></g><g transform="translate(223.76,50.3) scale(1.4745) rotate(0)"><path d="M10 1L12.2451 7.90983H19.5106L13.6327 12.1803L15.8779 19.0902L10 14.8197L4.12215 19.0902L6.36729 12.1803L0.489441 7.90983H7.75487L10 1Z" fill="#181e8e"/></g><rect x="265.03854545454544" y="48.22036363636364" width="33.65018181818182" height="33.65018181818182" fill="#18158a"/><g transform="translate(265.04,48.22) scale(0.8414999999999999) rotate(0)"><path d="M10 1L12.2451 7.90983H19.5106L13.6327 12.1803L15.8779 19.0902L10 14.8197L4.12215 19.0902L6.36729 12.1803L0.489441 7.90983H7.75487L10 1Z" fill="#2e2c95"/></g><g transform="translate(281.86,48.22) scale(0.8414999999999999) rotate(0)"><path d="M10 1L12.2451 7.90983H19.5106L13.6327 12.1803L15.8779 19.0902L10 14.8197L4.12215 19.0902L6.36729 12.1803L0.489441 7.90983H7.75487L10 1Z" fill="#18aacc"/></g><rect x="347.6029090909091" y="44.05745454545455" width="41.976000000000006" height="41.976000000000006" fill="#18158a"/><g transform="translate(368.59,44.06) scale(1.0494999999999999) rotate(0)"><path d="M10 1L12.2451 7.90983H19.5106L13.6327 12.1803L15.8779 19.0902L10 14.8197L4.12215 19.0902L6.36729 12.1803L0.489441 7.90983H7.75487L10 1Z" fill="#d2d7ed"/></g><g transform="translate(347.6,65.05) scale(1.0494999999999999) rotate(0)"><path d="M10 1L12.2451 7.90983H19.5106L13.6327 12.1803L15.8779 19.0902L10 14.8197L4.12215 19.0902L6.36729 12.1803L0.489441 7.90983H7.75487L10 1Z" fill="#5655ab"/></g><rect x="521.0574545454546" y="44.05745454545455" width="41.976000000000006" height="41.976000000000006" fill="#18158a"/><g transform="translate(542.05,44.06) scale(1.0494999999999999) rotate(0)"><path d="M10 1L12.2451 7.90983H19.5106L13.6327 12.1803L15.8779 19.0902L10 14.8197L4.12215 19.0902L6.36729 12.1803L0.489441 7.90983H7.75487L10 1Z" fill="#192994"/></g><g transform="translate(542.05,65.05) scale(1.0494999999999999) rotate(0)"><path d="M10 1L12.2451 7.90983H19.5106L13.6327 12.1803L15.8779 19.0902L10 14.8197L4.12215 19.0902L6.36729 12.1803L0.489441 7.90983H7.75487L10 1Z" fill="#18afce"/></g><rect x="611.9476363636364" y="48.22036363636364" width="33.65018181818182" height="33.65018181818182" fill="#18158a"/><g transform="translate(611.95,48.22) scale(0.8414999999999999) rotate(0)"><path d="M10 1L12.2451 7.90983H19.5106L13.6327 12.1803L15.8779 19.0902L10 14.8197L4.12215 19.0902L6.36729 12.1803L0.489441 7.90983H7.75487L10 1Z" fill="#192592"/></g><g transform="translate(611.95,65.05) scale(0.8414999999999999) rotate(0)"><path d="M10 1L12.2451 7.90983H19.5106L13.6327 12.1803L15.8779 19.0902L10 14.8197L4.12215 19.0902L6.36729 12.1803L0.489441 7.90983H7.75487L10 1Z" fill="#1fb1d9"/></g><g transform="translate(628.77,65.05) scale(0.8414999999999999) rotate(0)"><path d="M10 1L12.2451 7.90983H19.5106L13.6327 12.1803L15.8779 19.0902L10 14.8197L4.12215 19.0902L6.36729 12.1803L0.489441 7.90983H7.75487L10 1Z" fill="#1b4aa5"/></g><rect x="839.173090909091" y="58.62763636363637" width="12.835636363636361" height="12.835636363636361" fill="#18158a"/><g transform="translate(845.59,65.05) scale(0.321) rotate(0)"><path d="M10 1L12.2451 7.90983H19.5106L13.6327 12.1803L15.8779 19.0902L10 14.8197L4.12215 19.0902L6.36729 12.1803L0.489441 7.90983H7.75487L10 1Z" fill="#1887bd"/></g><g transform="translate(58.63,101.99) scale(0.642) rotate(0)"><path d="M10 1L12.2451 7.90983H19.5106L13.6327 12.1803L15.8779 19.0902L10 14.8197L4.12215 19.0902L6.36729 12.1803L0.489441 7.90983H7.75487L10 1Z" fill="#1a44a2"/></g><rect x="99.9098181818182" y="99.9098181818182" width="16.998545454545454" height="16.998545454545454" fill="#18158a"/><rect x="141.192" y="97.82836363636365" width="21.161454545454546" height="21.161454545454546" fill="#18158a"/><g transform="translate(141.19,108.41) scale(0.529) rotate(0)"><path d="M10 1L12.2451 7.90983H19.5106L13.6327 12.1803L15.8779 19.0902L10 14.8197L4.12215 19.0902L6.36729 12.1803L0.489441 7.90983H7.75487L10 1Z" fill="#c2c6e4"/></g><g transform="translate(151.77,108.41) scale(0.529) rotate(0)"><path d="M10 1L12.2451 7.90983H19.5106L13.6327 12.1803L15.8779 19.0902L10 14.8197L4.12215 19.0902L6.36729 12.1803L0.489441 7.90983H7.75487L10 1Z" fill="#182792"/></g><rect x="223.75636363636366" y="93.66545454545455" width="29.487272727272728" height="29.487272727272728" fill="#18158a"/><g transform="translate(238.5,108.41) scale(0.737) rotate(0)"><path d="M10 1L12.2451 7.90983H19.5106L13.6327 12.1803L15.8779 19.0902L10 14.8197L4.12215 19.0902L6.36729 12.1803L0.489441 7.90983H7.75487L10 1Z" fill="#c7cbe6"/></g><rect x="477.00000000000006" y="86.72727272727273" width="43.36363636363637" height="43.36363636363637" fill="#18158a"/><g transform="translate(477,86.73) scale(1.084) rotate(0)"><path d="M10 1L12.2451 7.90983H19.5106L13.6327 12.1803L15.8779 19.0902L10 14.8197L4.12215 19.0902L6.36729 12.1803L0.489441 7.90983H7.75487L10 1Z" fill="#192391"/></g><g transform="translate(477,108.41) scale(1.084) rotate(0)"><path d="M10 1L12.2451 7.90983H19.5106L13.6327 12.1803L15.8779 19.0902L10 14.8197L4.12215 19.0902L6.36729 12.1803L0.489441 7.90983H7.75487L10 1Z" fill="#1fb2da"/></g><rect x="521.0574545454546" y="87.42109090909092" width="41.976000000000006" height="41.976000000000006" fill="#18158a"/><rect x="657.3927272727274" y="93.66545454545455" width="29.487272727272728" height="29.487272727272728" fill="#18158a"/><g transform="translate(672.14,93.67) scale(0.737) rotate(0)"><path d="M10 1L12.2451 7.90983H19.5106L13.6327 12.1803L15.8779 19.0902L10 14.8197L4.12215 19.0902L6.36729 12.1803L0.489441 7.90983H7.75487L10 1Z" fill="#183598"/></g><g transform="translate(748.28,97.83) scale(1.058) rotate(0)"><path d="M10 1L12.2451 7.90983H19.5106L13.6327 12.1803L15.8779 19.0902L10 14.8197L4.12215 19.0902L6.36729 12.1803L0.489441 7.90983H7.75487L10 1Z" fill="#272592"/></g><rect x="793.7280000000001" y="99.9098181818182" width="16.998545454545454" height="16.998545454545454" fill="#18158a"/><g transform="translate(802.23,99.91) scale(0.425) rotate(0)"><path d="M10 1L12.2451 7.90983H19.5106L13.6327 12.1803L15.8779 19.0902L10 14.8197L4.12215 19.0902L6.36729 12.1803L0.489441 7.90983H7.75487L10 1Z" fill="#1864ad"/></g><rect x="839.173090909091" y="101.99127272727273" width="12.835636363636361" height="12.835636363636361" fill="#18158a"/><rect x="306.3207272727273" y="132.86618181818181" width="37.81309090909091" height="37.81309090909091" fill="#18158a"/><g transform="translate(325.23,151.77) scale(0.9455) rotate(0)"><path d="M10 1L12.2451 7.90983H19.5106L13.6327 12.1803L15.8779 19.0902L10 14.8197L4.12215 19.0902L6.36729 12.1803L0.489441 7.90983H7.75487L10 1Z" fill="#18bad3"/></g><rect x="433.6363636363637" y="130.0909090909091" width="43.36363636363637" height="43.36363636363637" fill="#18158a"/><g transform="translate(455.32,130.09) scale(1.084) rotate(0)"><path d="M10 1L12.2451 7.90983H19.5106L13.6327 12.1803L15.8779 19.0902L10 14.8197L4.12215 19.0902L6.36729 12.1803L0.489441 7.90983H7.75487L10 1Z" fill="#192f97"/></g><g transform="translate(455.32,151.77) scale(1.084) rotate(0)"><path d="M10 1L12.2451 7.90983H19.5106L13.6327 12.1803L15.8779 19.0902L10 14.8197L4.12215 19.0902L6.36729 12.1803L0.489441 7.90983H7.75487L10 1Z" fill="#1d83c2"/></g><rect x="657.3927272727274" y="137.0290909090909" width="29.487272727272728" height="29.487272727272728" fill="#18158a"/><g transform="translate(657.39,137.03) scale(0.737) rotate(0)"><path d="M10 1L12.2451 7.90983H19.5106L13.6327 12.1803L15.8779 19.0902L10 14.8197L4.12215 19.0902L6.36729 12.1803L0.489441 7.90983H7.75487L10 1Z" fill="#1e89c5"/></g><rect x="748.2829090909091" y="141.192" width="21.161454545454546" height="21.161454545454546" fill="#18158a"/><g transform="translate(748.28,151.77) scale(0.529) rotate(0)"><path d="M10 1L12.2451 7.90983H19.5106L13.6327 12.1803L15.8779 19.0902L10 14.8197L4.12215 19.0902L6.36729 12.1803L0.489441 7.90983H7.75487L10 1Z" fill="#186fb2"/></g><rect x="793.7280000000001" y="143.27345454545454" width="16.998545454545454" height="16.998545454545454" fill="#18158a"/><g transform="translate(802.23,143.27) scale(0.425) rotate(0)"><path d="M10 1L12.2451 7.90983H19.5106L13.6327 12.1803L15.8779 19.0902L10 14.8197L4.12215 19.0902L6.36729 12.1803L0.489441 7.90983H7.75487L10 1Z" fill="#186eb2"/></g><g transform="translate(793.73,151.77) scale(0.425) rotate(0)"><path d="M10 1L12.2451 7.90983H19.5106L13.6327 12.1803L15.8779 19.0902L10 14.8197L4.12215 19.0902L6.36729 12.1803L0.489441 7.90983H7.75487L10 1Z" fill="#7c7dbf"/></g><rect x="223.75636363636366" y="180.39272727272729" width="29.487272727272728" height="29.487272727272728" fill="#18158a"/><g transform="translate(238.5,180.39) scale(0.737) rotate(0)"><path d="M10 1L12.2451 7.90983H19.5106L13.6327 12.1803L15.8779 19.0902L10 14.8197L4.12215 19.0902L6.36729 12.1803L0.489441 7.90983H7.75487L10 1Z" fill="#1a42a1"/></g><g transform="translate(223.76,195.14) scale(0.737) rotate(0)"><path d="M10 1L12.2451 7.90983H19.5106L13.6327 12.1803L15.8779 19.0902L10 14.8197L4.12215 19.0902L6.36729 12.1803L0.489441 7.90983H7.75487L10 1Z" fill="#e9eff9"/></g><rect x="265.03854545454544" y="178.31127272727275" width="33.65018181818182" height="33.65018181818182" fill="#18158a"/><g transform="translate(265.04,178.31) scale(0.8414999999999999) rotate(0)"><path d="M10 1L12.2451 7.90983H19.5106L13.6327 12.1803L15.8779 19.0902L10 14.8197L4.12215 19.0902L6.36729 12.1803L0.489441 7.90983H7.75487L10 1Z" fill="#eef4fb"/></g><g transform="translate(347.6,174.15) scale(2.0989999999999998) rotate(0)"><path d="M10 1L12.2451 7.90983H19.5106L13.6327 12.1803L15.8779 19.0902L10 14.8197L4.12215 19.0902L6.36729 12.1803L0.489441 7.90983H7.75487L10 1Z" fill="#184aa1"/></g><rect x="702.8378181818182" y="182.47418181818182" width="25.32436363636364" height="25.32436363636364" fill="#18158a"/><rect x="793.7280000000001" y="186.63709090909092" width="16.998545454545454" height="16.998545454545454" fill="#18158a"/><g transform="translate(802.23,186.64) scale(0.425) rotate(0)"><path d="M10 1L12.2451 7.90983H19.5106L13.6327 12.1803L15.8779 19.0902L10 14.8197L4.12215 19.0902L6.36729 12.1803L0.489441 7.90983H7.75487L10 1Z" fill="#f4faff"/></g><g transform="translate(793.73,195.14) scale(0.425) rotate(0)"><path d="M10 1L12.2451 7.90983H19.5106L13.6327 12.1803L15.8779 19.0902L10 14.8197L4.12215 19.0902L6.36729 12.1803L0.489441 7.90983H7.75487L10 1Z" fill="#186eb1"/></g><rect x="99.9098181818182" y="230.0007272727273" width="16.998545454545454" height="16.998545454545454" fill="#18158a"/><g transform="translate(223.76,223.76) scale(1.4745) rotate(0)"><path d="M10 1L12.2451 7.90983H19.5106L13.6327 12.1803L15.8779 19.0902L10 14.8197L4.12215 19.0902L6.36729 12.1803L0.489441 7.90983H7.75487L10 1Z" fill="#192c96"/></g><rect x="306.3207272727273" y="219.59345454545456" width="37.81309090909091" height="37.81309090909091" fill="#18158a"/><g transform="translate(325.23,219.59) scale(0.9455) rotate(0)"><path d="M10 1L12.2451 7.90983H19.5106L13.6327 12.1803L15.8779 19.0902L10 14.8197L4.12215 19.0902L6.36729 12.1803L0.489441 7.90983H7.75487L10 1Z" fill="#1899c5"/></g><g transform="translate(306.32,238.5) scale(0.9455) rotate(0)"><path d="M10 1L12.2451 7.90983H19.5106L13.6327 12.1803L15.8779 19.0902L10 14.8197L4.12215 19.0902L6.36729 12.1803L0.489441 7.90983H7.75487L10 1Z" fill="#1a3c9e"/></g><g transform="translate(347.6,217.51) scale(2.0989999999999998) rotate(0)"><path d="M10 1L12.2451 7.90983H19.5106L13.6327 12.1803L15.8779 19.0902L10 14.8197L4.12215 19.0902L6.36729 12.1803L0.489441 7.90983H7.75487L10 1Z" fill="#18b0cf"/></g><rect x="477.00000000000006" y="216.81818181818184" width="43.36363636363637" height="43.36363636363637" fill="#18158a"/><g transform="translate(477,238.5) scale(1.084) rotate(0)"><path d="M10 1L12.2451 7.90983H19.5106L13.6327 12.1803L15.8779 19.0902L10 14.8197L4.12215 19.0902L6.36729 12.1803L0.489441 7.90983H7.75487L10 1Z" fill="#4241a0"/></g><rect x="566.5025454545455" y="219.59345454545456" width="37.81309090909091" height="37.81309090909091" fill="#18158a"/><g transform="translate(566.5,219.59) scale(0.9455) rotate(0)"><path d="M10 1L12.2451 7.90983H19.5106L13.6327 12.1803L15.8779 19.0902L10 14.8197L4.12215 19.0902L6.36729 12.1803L0.489441 7.90983H7.75487L10 1Z" fill="#1d87c4"/></g><g transform="translate(566.5,238.5) scale(0.9455) rotate(0)"><path d="M10 1L12.2451 7.90983H19.5106L13.6327 12.1803L15.8779 19.0902L10 14.8197L4.12215 19.0902L6.36729 12.1803L0.489441 7.90983H7.75487L10 1Z" fill="#7474ba"/></g><rect x="17.345454545454547" y="277.52727272727276" width="8.672727272727272" height="8.672727272727272" fill="#18158a"/><g transform="translate(17.35,277.53) scale(0.217) rotate(0)"><path d="M10 1L12.2451 7.90983H19.5106L13.6327 12.1803L15.8779 19.0902L10 14.8197L4.12215 19.0902L6.36729 12.1803L0.489441 7.90983H7.75487L10 1Z" fill="#1d1b8d"/></g><g transform="translate(21.68,281.86) scale(0.217) rotate(0)"><path d="M10 1L12.2451 7.90983H19.5106L13.6327 12.1803L15.8779 19.0902L10 14.8197L4.12215 19.0902L6.36729 12.1803L0.489441 7.90983H7.75487L10 1Z" fill="#e9eff9"/></g><rect x="58.62763636363637" y="275.4458181818182" width="12.835636363636361" height="12.835636363636361" fill="#18158a"/><g transform="translate(65.05,275.45) scale(0.321) rotate(0)"><path d="M10 1L12.2451 7.90983H19.5106L13.6327 12.1803L15.8779 19.0902L10 14.8197L4.12215 19.0902L6.36729 12.1803L0.489441 7.90983H7.75487L10 1Z" fill="#1d83c2"/></g><g transform="translate(58.63,281.86) scale(0.321) rotate(0)"><path d="M10 1L12.2451 7.90983H19.5106L13.6327 12.1803L15.8779 19.0902L10 14.8197L4.12215 19.0902L6.36729 12.1803L0.489441 7.90983H7.75487L10 1Z" fill="#1893c2"/></g><rect x="182.47418181818182" y="269.20145454545457" width="25.32436363636364" height="25.32436363636364" fill="#18158a"/><g transform="translate(182.47,269.2) scale(0.633) rotate(0)"><path d="M10 1L12.2451 7.90983H19.5106L13.6327 12.1803L15.8779 19.0902L10 14.8197L4.12215 19.0902L6.36729 12.1803L0.489441 7.90983H7.75487L10 1Z" fill="#20bbdf"/></g><g transform="translate(182.47,281.86) scale(0.633) rotate(0)"><path d="M10 1L12.2451 7.90983H19.5106L13.6327 12.1803L15.8779 19.0902L10 14.8197L4.12215 19.0902L6.36729 12.1803L0.489441 7.90983H7.75487L10 1Z" fill="#1887bd"/></g><rect x="433.6363636363637" y="260.1818181818182" width="43.36363636363637" height="43.36363636363637" fill="#18158a"/><g transform="translate(433.64,281.86) scale(1.084) rotate(0)"><path d="M10 1L12.2451 7.90983H19.5106L13.6327 12.1803L15.8779 19.0902L10 14.8197L4.12215 19.0902L6.36729 12.1803L0.489441 7.90983H7.75487L10 1Z" fill="#1e9ace"/></g><g transform="translate(455.32,281.86) scale(1.084) rotate(0)"><path d="M10 1L12.2451 7.90983H19.5106L13.6327 12.1803L15.8779 19.0902L10 14.8197L4.12215 19.0902L6.36729 12.1803L0.489441 7.90983H7.75487L10 1Z" fill="#abaed8"/></g><rect x="657.3927272727274" y="267.12" width="29.487272727272728" height="29.487272727272728" fill="#18158a"/><rect x="17.345454545454547" y="320.89090909090913" width="8.672727272727272" height="8.672727272727272" fill="#18158a"/><g transform="translate(21.68,320.89) scale(0.217) rotate(0)"><path d="M10 1L12.2451 7.90983H19.5106L13.6327 12.1803L15.8779 19.0902L10 14.8197L4.12215 19.0902L6.36729 12.1803L0.489441 7.90983H7.75487L10 1Z" fill="#1c6cb6"/></g><g transform="translate(347.6,304.24) scale(2.0989999999999998) rotate(0)"><path d="M10 1L12.2451 7.90983H19.5106L13.6327 12.1803L15.8779 19.0902L10 14.8197L4.12215 19.0902L6.36729 12.1803L0.489441 7.90983H7.75487L10 1Z" fill="#c8cce7"/></g><g transform="translate(521.06,304.24) scale(2.0989999999999998) rotate(0)"><path d="M10 1L12.2451 7.90983H19.5106L13.6327 12.1803L15.8779 19.0902L10 14.8197L4.12215 19.0902L6.36729 12.1803L0.489441 7.90983H7.75487L10 1Z" fill="#1d1a8d"/></g><rect x="611.9476363636364" y="308.4021818181818" width="33.65018181818182" height="33.65018181818182" fill="#18158a"/><g transform="translate(611.95,308.4) scale(0.8414999999999999) rotate(0)"><path d="M10 1L12.2451 7.90983H19.5106L13.6327 12.1803L15.8779 19.0902L10 14.8197L4.12215 19.0902L6.36729 12.1803L0.489441 7.90983H7.75487L10 1Z" fill="#18cadb"/></g><g transform="translate(611.95,325.23) scale(0.8414999999999999) rotate(0)"><path d="M10 1L12.2451 7.90983H19.5106L13.6327 12.1803L15.8779 19.0902L10 14.8197L4.12215 19.0902L6.36729 12.1803L0.489441 7.90983H7.75487L10 1Z" fill="#504fa8"/></g><rect x="17.345454545454547" y="364.2545454545455" width="8.672727272727272" height="8.672727272727272" fill="#18158a"/><g transform="translate(21.68,364.25) scale(0.217) rotate(0)"><path d="M10 1L12.2451 7.90983H19.5106L13.6327 12.1803L15.8779 19.0902L10 14.8197L4.12215 19.0902L6.36729 12.1803L0.489441 7.90983H7.75487L10 1Z" fill="#6161b1"/></g><g transform="translate(99.91,360.09) scale(0.85) rotate(0)"><path d="M10 1L12.2451 7.90983H19.5106L13.6327 12.1803L15.8779 19.0902L10 14.8197L4.12215 19.0902L6.36729 12.1803L0.489441 7.90983H7.75487L10 1Z" fill="#18afce"/></g><rect x="223.75636363636366" y="353.84727272727275" width="29.487272727272728" height="29.487272727272728" fill="#18158a"/><rect x="306.3207272727273" y="349.6843636363637" width="37.81309090909091" height="37.81309090909091" fill="#18158a"/><rect x="433.6363636363637" y="346.90909090909093" width="43.36363636363637" height="43.36363636363637" fill="#18158a"/><rect x="566.5025454545455" y="349.6843636363637" width="37.81309090909091" height="37.81309090909091" fill="#18158a"/><rect x="611.9476363636364" y="351.7658181818182" width="33.65018181818182" height="33.65018181818182" fill="#18158a"/><g transform="translate(611.95,351.77) scale(0.8414999999999999) rotate(0)"><path d="M10 1L12.2451 7.90983H19.5106L13.6327 12.1803L15.8779 19.0902L10 14.8197L4.12215 19.0902L6.36729 12.1803L0.489441 7.90983H7.75487L10 1Z" fill="#3e3d9e"/></g><g transform="translate(611.95,368.59) scale(0.8414999999999999) rotate(0)"><path d="M10 1L12.2451 7.90983H19.5106L13.6327 12.1803L15.8779 19.0902L10 14.8197L4.12215 19.0902L6.36729 12.1803L0.489441 7.90983H7.75487L10 1Z" fill="#18b4d1"/></g><g transform="translate(628.77,368.59) scale(0.8414999999999999) rotate(0)"><path d="M10 1L12.2451 7.90983H19.5106L13.6327 12.1803L15.8779 19.0902L10 14.8197L4.12215 19.0902L6.36729 12.1803L0.489441 7.90983H7.75487L10 1Z" fill="#18c3d7"/></g><rect x="702.8378181818182" y="355.9287272727273" width="25.32436363636364" height="25.32436363636364" fill="#18158a"/><rect x="141.192" y="401.3738181818182" width="21.161454545454546" height="21.161454545454546" fill="#18158a"/><g transform="translate(151.77,401.37) scale(0.529) rotate(0)"><path d="M10 1L12.2451 7.90983H19.5106L13.6327 12.1803L15.8779 19.0902L10 14.8197L4.12215 19.0902L6.36729 12.1803L0.489441 7.90983H7.75487L10 1Z" fill="#182893"/></g><g transform="translate(151.77,411.95) scale(0.529) rotate(0)"><path d="M10 1L12.2451 7.90983H19.5106L13.6327 12.1803L15.8779 19.0902L10 14.8197L4.12215 19.0902L6.36729 12.1803L0.489441 7.90983H7.75487L10 1Z" fill="#192391"/></g><rect x="265.03854545454544" y="395.12945454545456" width="33.65018181818182" height="33.65018181818182" fill="#18158a"/><g transform="translate(265.04,411.95) scale(0.8414999999999999) rotate(0)"><path d="M10 1L12.2451 7.90983H19.5106L13.6327 12.1803L15.8779 19.0902L10 14.8197L4.12215 19.0902L6.36729 12.1803L0.489441 7.90983H7.75487L10 1Z" fill="#1f9fd0"/></g><g transform="translate(306.32,393.05) scale(1.8905) rotate(0)"><path d="M10 1L12.2451 7.90983H19.5106L13.6327 12.1803L15.8779 19.0902L10 14.8197L4.12215 19.0902L6.36729 12.1803L0.489441 7.90983H7.75487L10 1Z" fill="#1889be"/></g><rect x="390.2727272727273" y="390.2727272727273" width="43.36363636363637" height="43.36363636363637" fill="#18158a"/><g transform="translate(411.95,390.27) scale(1.084) rotate(0)"><path d="M10 1L12.2451 7.90983H19.5106L13.6327 12.1803L15.8779 19.0902L10 14.8197L4.12215 19.0902L6.36729 12.1803L0.489441 7.90983H7.75487L10 1Z" fill="#1c6bb6"/></g><g transform="translate(390.27,411.95) scale(1.084) rotate(0)"><path d="M10 1L12.2451 7.90983H19.5106L13.6327 12.1803L15.8779 19.0902L10 14.8197L4.12215 19.0902L6.36729 12.1803L0.489441 7.90983H7.75487L10 1Z" fill="#185ba9"/></g><g transform="translate(477,390.27) scale(2.168) rotate(0)"><path d="M10 1L12.2451 7.90983H19.5106L13.6327 12.1803L15.8779 19.0902L10 14.8197L4.12215 19.0902L6.36729 12.1803L0.489441 7.90983H7.75487L10 1Z" fill="#8b8cc7"/></g><rect x="521.0574545454546" y="390.9665454545455" width="41.976000000000006" height="41.976000000000006" fill="#18158a"/><g transform="translate(521.06,390.97) scale(1.0494999999999999) rotate(0)"><path d="M10 1L12.2451 7.90983H19.5106L13.6327 12.1803L15.8779 19.0902L10 14.8197L4.12215 19.0902L6.36729 12.1803L0.489441 7.90983H7.75487L10 1Z" fill="#1b51a8"/></g><rect x="611.9476363636364" y="395.12945454545456" width="33.65018181818182" height="33.65018181818182" fill="#18158a"/><g transform="translate(628.77,395.13) scale(0.8414999999999999) rotate(0)"><path d="M10 1L12.2451 7.90983H19.5106L13.6327 12.1803L15.8779 19.0902L10 14.8197L4.12215 19.0902L6.36729 12.1803L0.489441 7.90983H7.75487L10 1Z" fill="#1fabd6"/></g><rect x="657.3927272727274" y="397.2109090909091" width="29.487272727272728" height="29.487272727272728" fill="#18158a"/><g transform="translate(672.14,397.21) scale(0.737) rotate(0)"><path d="M10 1L12.2451 7.90983H19.5106L13.6327 12.1803L15.8779 19.0902L10 14.8197L4.12215 19.0902L6.36729 12.1803L0.489441 7.90983H7.75487L10 1Z" fill="#187fb9"/></g><rect x="793.7280000000001" y="403.45527272727276" width="16.998545454545454" height="16.998545454545454" fill="#18158a"/><g transform="translate(793.73,403.46) scale(0.425) rotate(0)"><path d="M10 1L12.2451 7.90983H19.5106L13.6327 12.1803L15.8779 19.0902L10 14.8197L4.12215 19.0902L6.36729 12.1803L0.489441 7.90983H7.75487L10 1Z" fill="#4645a2"/></g><rect x="17.345454545454547" y="450.98181818181826" width="8.672727272727272" height="8.672727272727272" fill="#18158a"/><g transform="translate(21.68,450.98) scale(0.217) rotate(0)"><path d="M10 1L12.2451 7.90983H19.5106L13.6327 12.1803L15.8779 19.0902L10 14.8197L4.12215 19.0902L6.36729 12.1803L0.489441 7.90983H7.75487L10 1Z" fill="#1fb1d9"/></g><g transform="translate(17.35,455.32) scale(0.217) rotate(0)"><path d="M10 1L12.2451 7.90983H19.5106L13.6327 12.1803L15.8779 19.0902L10 14.8197L4.12215 19.0902L6.36729 12.1803L0.489441 7.90983H7.75487L10 1Z" fill="#1892c1"/></g><rect x="99.9098181818182" y="446.81890909090913" width="16.998545454545454" height="16.998545454545454" fill="#18158a"/><rect x="141.192" y="444.73745454545457" width="21.161454545454546" height="21.161454545454546" fill="#18158a"/><g transform="translate(182.47,442.66) scale(1.266) rotate(0)"><path d="M10 1L12.2451 7.90983H19.5106L13.6327 12.1803L15.8779 19.0902L10 14.8197L4.12215 19.0902L6.36729 12.1803L0.489441 7.90983H7.75487L10 1Z" fill="#8384c2"/></g><rect x="347.6029090909091" y="434.33018181818187" width="41.976000000000006" height="41.976000000000006" fill="#18158a"/><rect x="433.6363636363637" y="433.6363636363637" width="43.36363636363637" height="43.36363636363637" fill="#18158a"/><g transform="translate(455.32,433.64) scale(1.084) rotate(0)"><path d="M10 1L12.2451 7.90983H19.5106L13.6327 12.1803L15.8779 19.0902L10 14.8197L4.12215 19.0902L6.36729 12.1803L0.489441 7.90983H7.75487L10 1Z" fill="#f4faff"/></g><rect x="566.5025454545455" y="436.41163636363643" width="37.81309090909091" height="37.81309090909091" fill="#18158a"/><rect x="657.3927272727274" y="440.5745454545455" width="29.487272727272728" height="29.487272727272728" fill="#18158a"/><g transform="translate(657.39,455.32) scale(0.737) rotate(0)"><path d="M10 1L12.2451 7.90983H19.5106L13.6327 12.1803L15.8779 19.0902L10 14.8197L4.12215 19.0902L6.36729 12.1803L0.489441 7.90983H7.75487L10 1Z" fill="#dbe0f1"/></g><rect x="702.8378181818182" y="442.65600000000006" width="25.32436363636364" height="25.32436363636364" fill="#18158a"/><g transform="translate(702.84,442.66) scale(0.633) rotate(0)"><path d="M10 1L12.2451 7.90983H19.5106L13.6327 12.1803L15.8779 19.0902L10 14.8197L4.12215 19.0902L6.36729 12.1803L0.489441 7.90983H7.75487L10 1Z" fill="#18218f"/></g><g transform="translate(715.5,442.66) scale(0.633) rotate(0)"><path d="M10 1L12.2451 7.90983H19.5106L13.6327 12.1803L15.8779 19.0902L10 14.8197L4.12215 19.0902L6.36729 12.1803L0.489441 7.90983H7.75487L10 1Z" fill="#186eb2"/></g><rect x="793.7280000000001" y="446.81890909090913" width="16.998545454545454" height="16.998545454545454" fill="#18158a"/><g transform="translate(793.73,446.82) scale(0.425) rotate(0)"><path d="M10 1L12.2451 7.90983H19.5106L13.6327 12.1803L15.8779 19.0902L10 14.8197L4.12215 19.0902L6.36729 12.1803L0.489441 7.90983H7.75487L10 1Z" fill="#20b7dc"/></g><g transform="translate(802.23,446.82) scale(0.425) rotate(0)"><path d="M10 1L12.2451 7.90983H19.5106L13.6327 12.1803L15.8779 19.0902L10 14.8197L4.12215 19.0902L6.36729 12.1803L0.489441 7.90983H7.75487L10 1Z" fill="#18c5d8"/></g></g></svg>